<svg xmlns="http://www.w3.org/2000/svg" xmlns:xlink="http://www.w3.org/1999/xlink" version="1.1" id="Layer_1" x="0px" y="0px" viewBox="0 0 512.001 512.001" style="enable-background: new 0 0 512.001 512.001" xml:space="preserve">
              <path d="M495.625,137.534H145.066c-6.154-8.193-15.188-14.098-25.6-16.211v-10.31c0-13.63-11.048-24.678-24.678-24.678H41.745    c-13.63,0-24.678,11.048-24.678,24.678v265.512C7.548,377.109,0,384.994,0,394.66v14.814c0,10.046,8.147,18.193,18.193,18.193    H118.34c10.046,0,18.193-8.147,18.193-18.193V394.66c0-9.666-7.548-17.551-17.067-18.136V204.945    c10.411-2.114,19.445-8.019,25.6-16.211h350.559c9.048,0,16.375-7.328,16.375-16.375v-18.449    C512.001,144.861,504.673,137.534,495.625,137.534z M310.735,154.6h44.131l-17.067,17.067h-44.131L310.735,154.6z     M269.532,171.667h-44.131l17.067-17.067h44.131L269.532,171.667z M379.001,154.6h44.131l-17.067,17.067h-44.131L379.001,154.6z     M34.133,111.012c0-4.205,3.407-7.612,7.612-7.612h53.043c4.205,0,7.612,3.407,7.612,7.612v10.309    c-0.011,0.002-0.023,0.005-0.034,0.008c-0.112,0.023-0.221,0.051-0.332,0.075c-0.542,0.115-1.082,0.237-1.616,0.373    c-0.226,0.057-0.448,0.122-0.672,0.183c-0.417,0.113-0.832,0.228-1.244,0.353c-0.249,0.076-0.496,0.157-0.743,0.238    c-0.383,0.124-0.764,0.252-1.141,0.386c-0.252,0.09-0.503,0.183-0.753,0.277c-0.371,0.14-0.74,0.286-1.106,0.436    c-0.244,0.1-0.487,0.2-0.728,0.304c-0.374,0.162-0.744,0.331-1.112,0.503c-0.224,0.105-0.45,0.207-0.672,0.315    c-0.408,0.199-0.809,0.408-1.21,0.62c-0.174,0.092-0.351,0.179-0.524,0.274c-0.569,0.311-1.13,0.632-1.683,0.968    c-0.078,0.048-0.154,0.099-0.232,0.147c-0.473,0.291-0.941,0.589-1.401,0.898c-0.186,0.124-0.366,0.255-0.55,0.383    c-0.348,0.242-0.695,0.485-1.035,0.736c-0.204,0.15-0.403,0.305-0.604,0.459c-0.313,0.24-0.624,0.483-0.931,0.731    c-0.204,0.165-0.405,0.333-0.605,0.502c-0.298,0.251-0.593,0.506-0.884,0.766c-0.194,0.172-0.387,0.345-0.578,0.521    c-0.294,0.271-0.582,0.549-0.869,0.828c-0.176,0.172-0.354,0.342-0.528,0.518c-0.312,0.315-0.616,0.638-0.918,0.962    c-0.137,0.147-0.277,0.29-0.412,0.439c-0.432,0.477-0.854,0.963-1.264,1.459c-0.042,0.051-0.082,0.105-0.124,0.156    c-0.366,0.447-0.723,0.901-1.071,1.362c-0.132,0.175-0.257,0.355-0.386,0.532c-0.252,0.345-0.501,0.692-0.743,1.044    c-0.142,0.208-0.28,0.42-0.418,0.631c-0.218,0.331-0.433,0.664-0.642,1.001c-0.139,0.224-0.274,0.45-0.409,0.677    c-0.2,0.336-0.395,0.676-0.585,1.018c-0.128,0.229-0.255,0.459-0.378,0.69c-0.189,0.355-0.371,0.714-0.55,1.074    c-0.111,0.224-0.225,0.447-0.332,0.673c-0.191,0.401-0.371,0.808-0.55,1.216c-0.083,0.191-0.172,0.379-0.252,0.571    c-0.253,0.602-0.495,1.211-0.721,1.827c-0.013,0.034-0.023,0.069-0.035,0.103c-0.212,0.583-0.41,1.171-0.597,1.765    c-0.066,0.209-0.123,0.421-0.186,0.631c-0.126,0.424-0.25,0.848-0.363,1.277c-0.066,0.249-0.125,0.501-0.186,0.752    c-0.097,0.398-0.191,0.796-0.277,1.198c-0.057,0.265-0.109,0.531-0.161,0.797c-0.077,0.398-0.148,0.797-0.214,1.198    c-0.044,0.269-0.087,0.538-0.126,0.809c-0.06,0.412-0.11,0.827-0.158,1.242c-0.03,0.261-0.062,0.521-0.087,0.784    c-0.044,0.457-0.075,0.917-0.105,1.378c-0.014,0.224-0.034,0.446-0.045,0.67c-0.033,0.686-0.052,1.376-0.052,2.071    s0.02,1.384,0.052,2.071c0.011,0.225,0.03,0.447,0.045,0.67c0.029,0.461,0.061,0.921,0.105,1.378    c0.025,0.263,0.057,0.523,0.087,0.784c0.048,0.416,0.098,0.83,0.158,1.242c0.039,0.271,0.082,0.54,0.126,0.809    c0.066,0.402,0.137,0.801,0.214,1.199c0.052,0.266,0.104,0.532,0.161,0.797c0.086,0.402,0.18,0.801,0.277,1.199    c0.061,0.251,0.12,0.503,0.186,0.752c0.113,0.429,0.237,0.853,0.363,1.277c0.063,0.21,0.12,0.422,0.186,0.631    c0.187,0.594,0.385,1.182,0.597,1.765c0.012,0.034,0.023,0.069,0.035,0.103c0.226,0.616,0.467,1.225,0.721,1.827    c0.081,0.192,0.169,0.38,0.252,0.571c0.178,0.408,0.359,0.815,0.55,1.216c0.107,0.226,0.221,0.449,0.332,0.673    c0.18,0.361,0.362,0.72,0.551,1.075c0.123,0.231,0.25,0.46,0.377,0.688c0.191,0.343,0.387,0.683,0.587,1.021    c0.134,0.226,0.269,0.451,0.407,0.674c0.209,0.338,0.425,0.672,0.644,1.004c0.138,0.21,0.275,0.421,0.417,0.628    c0.242,0.354,0.493,0.702,0.745,1.048c0.128,0.176,0.253,0.355,0.383,0.528c0.348,0.462,0.706,0.917,1.072,1.364    c0.042,0.051,0.081,0.105,0.123,0.156c0.41,0.496,0.832,0.982,1.264,1.459c0.134,0.149,0.274,0.291,0.411,0.438    c0.302,0.325,0.607,0.649,0.919,0.964c0.173,0.174,0.35,0.344,0.525,0.515c0.287,0.28,0.576,0.558,0.87,0.83    c0.19,0.176,0.384,0.348,0.577,0.521c0.292,0.26,0.587,0.515,0.885,0.767c0.2,0.168,0.4,0.335,0.603,0.499    c0.308,0.25,0.62,0.493,0.934,0.734c0.2,0.153,0.398,0.307,0.601,0.457c0.342,0.253,0.691,0.497,1.041,0.74    c0.182,0.126,0.361,0.256,0.544,0.379c0.464,0.311,0.936,0.612,1.413,0.906c0.074,0.046,0.146,0.095,0.221,0.14    c0.553,0.336,1.116,0.658,1.685,0.969c0.17,0.093,0.345,0.179,0.517,0.27c0.403,0.213,0.807,0.423,1.217,0.623    c0.22,0.108,0.444,0.209,0.667,0.313c0.37,0.173,0.742,0.343,1.118,0.505c0.24,0.104,0.482,0.203,0.724,0.302    c0.368,0.151,0.738,0.297,1.111,0.438c0.249,0.094,0.498,0.186,0.749,0.276c0.38,0.135,0.762,0.263,1.147,0.388    c0.246,0.08,0.491,0.161,0.738,0.236c0.414,0.126,0.832,0.242,1.251,0.355c0.222,0.06,0.442,0.125,0.665,0.181    c0.539,0.137,1.083,0.26,1.63,0.376c0.107,0.023,0.212,0.05,0.319,0.072c0.012,0.002,0.023,0.006,0.035,0.008v171.52H34.133    V111.012z M119.467,409.474c0,0.62-0.506,1.126-1.126,1.126H18.193c-0.62,0-1.126-0.506-1.126-1.126V394.66    c0-0.62,0.506-1.126,1.126-1.126H118.34c0.62,0,1.126,0.506,1.126,1.126V409.474z M110.933,188.734    c-14.137,0-25.6-11.463-25.6-25.6c0-14.137,11.463-25.6,25.6-25.6c14.137,0,25.6,11.463,25.6,25.6    C136.533,177.271,125.071,188.734,110.933,188.734z M153.601,154.6h64.731l-17.067,17.067h-47.665V154.6z M494.934,171.667    h-64.733l17.067-17.067h47.666V171.667z"></path>
            </svg>